<svg width="703" height="259" viewBox="0 0 703 259" fill="none" xmlns="http://www.w3.org/2000/svg">
<path d="M116.329 64.8593C138.711 58.8619 161.718 72.1448 167.715 94.5274C173.567 116.367 161.062 138.796 139.659 145.444L150.528 186.008L77.5781 205.555L45 83.9717L116.329 64.8593Z" fill="white"/>
<path d="M234.683 114.016C236.283 111.52 238.491 109.504 241.307 107.968C244.123 106.432 247.419 105.664 251.195 105.664C255.611 105.664 259.611 106.784 263.195 109.024C266.779 111.264 269.595 114.464 271.643 118.624C273.755 122.784 274.811 127.616 274.811 133.12C274.811 138.624 273.755 143.488 271.643 147.712C269.595 151.872 266.779 155.104 263.195 157.408C259.611 159.648 255.611 160.768 251.195 160.768C247.483 160.768 244.187 160 241.307 158.464C238.491 156.928 236.283 154.944 234.683 152.512V185.536H218.267V106.432H234.683V114.016ZM258.107 133.12C258.107 129.024 256.955 125.824 254.651 123.52C252.411 121.152 249.627 119.968 246.299 119.968C243.035 119.968 240.251 121.152 237.947 123.52C235.707 125.888 234.587 129.12 234.587 133.216C234.587 137.312 235.707 140.544 237.947 142.912C240.251 145.28 243.035 146.464 246.299 146.464C249.563 146.464 252.347 145.28 254.651 142.912C256.955 140.48 258.107 137.216 258.107 133.12ZM280.159 133.12C280.159 127.616 281.183 122.784 283.231 118.624C285.343 114.464 288.191 111.264 291.775 109.024C295.359 106.784 299.359 105.664 303.775 105.664C307.551 105.664 310.847 106.432 313.663 107.968C316.543 109.504 318.751 111.52 320.287 114.016V106.432H336.703V160H320.287V152.416C318.687 154.912 316.447 156.928 313.567 158.464C310.751 160 307.455 160.768 303.679 160.768C299.327 160.768 295.359 159.648 291.775 157.408C288.191 155.104 285.343 151.872 283.231 147.712C281.183 143.488 280.159 138.624 280.159 133.12ZM320.287 133.216C320.287 129.12 319.135 125.888 316.831 123.52C314.591 121.152 311.839 119.968 308.575 119.968C305.311 119.968 302.527 121.152 300.223 123.52C297.983 125.824 296.863 129.024 296.863 133.12C296.863 137.216 297.983 140.48 300.223 142.912C302.527 145.28 305.311 146.464 308.575 146.464C311.839 146.464 314.591 145.28 316.831 142.912C319.135 140.544 320.287 137.312 320.287 133.216ZM403.299 106.432L369.699 185.44H352.035L364.323 158.176L342.531 106.432H360.867L373.251 139.936L385.539 106.432H403.299ZM477.588 105.856C484.244 105.856 489.524 107.872 493.428 111.904C497.396 115.936 499.38 121.536 499.38 128.704V160H483.06V130.912C483.06 127.456 482.132 124.8 480.276 122.944C478.484 121.024 475.988 120.064 472.788 120.064C469.588 120.064 467.06 121.024 465.204 122.944C463.412 124.8 462.516 127.456 462.516 130.912V160H446.196V130.912C446.196 127.456 445.268 124.8 443.412 122.944C441.62 121.024 439.124 120.064 435.924 120.064C432.724 120.064 430.196 121.024 428.34 122.944C426.548 124.8 425.652 127.456 425.652 130.912V160H409.236V106.432H425.652V113.152C427.316 110.912 429.492 109.152 432.18 107.872C434.868 106.528 437.908 105.856 441.3 105.856C445.332 105.856 448.916 106.72 452.052 108.448C455.252 110.176 457.748 112.64 459.54 115.84C461.396 112.896 463.924 110.496 467.124 108.64C470.324 106.784 473.812 105.856 477.588 105.856ZM519.117 100.864C516.237 100.864 513.869 100.032 512.013 98.3681C510.221 96.6401 509.325 94.5281 509.325 92.0321C509.325 89.4721 510.221 87.3601 512.013 85.6961C513.869 83.9681 516.237 83.1041 519.117 83.1041C521.933 83.1041 524.237 83.9681 526.029 85.6961C527.885 87.3601 528.813 89.4721 528.813 92.0321C528.813 94.5281 527.885 96.6401 526.029 98.3681C524.237 100.032 521.933 100.864 519.117 100.864ZM527.277 106.432V160H510.861V106.432H527.277ZM571.813 105.856C578.085 105.856 583.077 107.904 586.789 112C590.565 116.032 592.453 121.6 592.453 128.704V160H576.133V130.912C576.133 127.328 575.205 124.544 573.349 122.56C571.493 120.576 568.997 119.584 565.861 119.584C562.725 119.584 560.229 120.576 558.373 122.56C556.517 124.544 555.589 127.328 555.589 130.912V160H539.173V106.432H555.589V113.536C557.253 111.168 559.493 109.312 562.309 107.968C565.125 106.56 568.293 105.856 571.813 105.856ZM633.717 146.08V160H625.365C619.413 160 614.773 158.56 611.445 155.68C608.117 152.736 606.453 147.968 606.453 141.376V120.064H599.925V106.432H606.453V93.3761H622.869V106.432H633.621V120.064H622.869V141.568C622.869 143.168 623.253 144.32 624.021 145.024C624.789 145.728 626.069 146.08 627.861 146.08H633.717Z" fill="white"/>
</svg>
